<svg width="24" height="45" viewBox="0 0 24 45" fill="none" xmlns="http://www.w3.org/2000/svg">
<path fill-rule="evenodd" clip-rule="evenodd" d="M23.4992 43.7726C23.3409 43.9304 23.1528 44.0557 22.9457 44.1411C22.7386 44.2265 22.5166 44.2705 22.2924 44.2705C22.0682 44.2705 21.8462 44.2265 21.6391 44.1411C21.432 44.0557 21.2439 43.9304 21.0856 43.7726L0.631046 23.4354C0.472307 23.278 0.346367 23.091 0.260435 22.8851C0.174505 22.6792 0.130272 22.4585 0.130272 22.2356C0.130272 22.0126 0.174505 21.7919 0.260435 21.586C0.346367 21.3801 0.472307 21.1931 0.631046 21.0357L21.0856 0.698505C21.4057 0.380272 21.8398 0.201492 22.2924 0.201492C22.7451 0.201492 23.1792 0.380272 23.4992 0.698505C23.8193 1.01674 23.9991 1.44835 23.9991 1.8984C23.9991 2.34844 23.8193 2.78006 23.4992 3.09829L4.24809 22.2356L23.4992 41.3728C23.658 41.5303 23.7839 41.7173 23.8698 41.9232C23.9558 42.1291 24 42.3498 24 42.5727C24 42.7956 23.9558 43.0164 23.8698 43.2223C23.7839 43.4282 23.658 43.6152 23.4992 43.7726Z" fill="white"/>
</svg>
