<svg width="37" height="34" viewBox="0 0 37 34" fill="none" xmlns="http://www.w3.org/2000/svg">
<path d="M0.00195312 5.9375V9H10.7277C11.0757 8.99969 11.4093 8.86121 11.6552 8.615L16.1895 4.0825L13.512 1.40325C13.1463 1.03762 12.7122 0.747588 12.2345 0.549713C11.7568 0.351838 11.2448 0.249996 10.7277 0.25H5.68945C4.18103 0.25 2.7344 0.849217 1.66778 1.91583C0.60117 2.98244 0.00195313 4.42908 0.00195312 5.9375ZM0.00195312 26.0625V11.625H10.7277C11.7714 11.6245 12.7722 11.2097 13.5102 10.4717L19.3605 4.625H29.3162C30.8243 4.62546 32.2705 5.22489 33.3367 6.29145C34.403 7.35801 35.002 8.80438 35.002 10.3125V21.25H34.9635C34.7938 19.3914 34.0875 17.6223 32.9304 16.1579C31.7734 14.6936 30.2156 13.5972 28.4467 13.0022C26.6778 12.4072 24.7741 12.3394 22.9673 12.8069C21.1605 13.2744 19.5286 14.2571 18.2702 15.6353C17.0119 17.0136 16.1814 18.728 15.8798 20.5697C15.5782 22.4115 15.8186 24.3012 16.5717 26.0088C17.3248 27.7164 18.558 29.1683 20.1214 30.1876C21.6847 31.2069 23.5107 31.7497 25.377 31.75H5.68945C4.18103 31.75 2.7344 31.1508 1.66778 30.0842C0.60117 29.0176 0.00195313 27.5709 0.00195312 26.0625ZM25.377 31.75C25.6727 31.75 25.9632 31.736 26.252 31.7115V31.75H25.377ZM25.377 30C27.0123 30.0024 28.6075 29.4933 29.9392 28.544L34.512 33.115C34.6321 33.244 34.777 33.3474 34.938 33.4191C35.099 33.4909 35.2728 33.5294 35.449 33.5325C35.6253 33.5356 35.8003 33.5032 35.9637 33.4372C36.1272 33.3712 36.2756 33.2729 36.4003 33.1483C36.5249 33.0237 36.6232 32.8752 36.6892 32.7118C36.7552 32.5484 36.7876 32.3733 36.7845 32.1971C36.7814 32.0209 36.7428 31.8471 36.6711 31.6861C36.5993 31.5251 36.4959 31.3802 36.367 31.26L31.796 26.6873C32.8187 25.2483 33.3283 23.5075 33.2429 21.7442C33.1575 19.9809 32.4822 18.2974 31.3252 16.964C30.1683 15.6306 28.5969 14.7246 26.8632 14.3915C25.1296 14.0583 23.3343 14.3174 21.7655 15.127C20.1968 15.9366 18.9456 17.2498 18.2127 18.8559C17.4799 20.462 17.3079 22.2677 17.7245 23.9832C18.141 25.6987 19.1219 27.2245 20.5097 28.3156C21.8975 29.4068 23.6116 30 25.377 30ZM25.377 27.375C23.9846 27.375 22.6492 26.8219 21.6646 25.8373C20.6801 24.8527 20.127 23.5174 20.127 22.125C20.127 20.7326 20.6801 19.3973 21.6646 18.4127C22.6492 17.4281 23.9846 16.875 25.377 16.875C26.7693 16.875 28.1047 17.4281 29.0893 18.4127C30.0738 19.3973 30.627 20.7326 30.627 22.125C30.627 23.5174 30.0738 24.8527 29.0893 25.8373C28.1047 26.8219 26.7693 27.375 25.377 27.375Z" fill="black"/>
</svg>
