<svg width="43" height="42" viewBox="0 0 43 42" fill="none" xmlns="http://www.w3.org/2000/svg">
<path fill-rule="evenodd" clip-rule="evenodd" d="M17.6135 36.75H25.3905C30.8522 36.75 33.584 36.75 35.5457 35.4637C36.3922 34.9089 37.1212 34.193 37.6912 33.3567C39.002 31.4317 39.002 28.749 39.002 23.387C39.002 18.0232 39.002 15.3422 37.6912 13.4172C37.1212 12.5809 36.3922 11.865 35.5457 11.3102C34.2857 10.4825 32.7072 10.1867 30.2905 10.0817C29.1372 10.0817 28.145 9.22421 27.9192 8.11296C27.7467 7.29898 27.2984 6.56952 26.6502 6.04787C26.002 5.52622 25.1935 5.24437 24.3615 5.24996H18.6425C16.9135 5.24996 15.4242 6.44871 15.0847 8.11296C14.859 9.22421 13.8667 10.0817 12.7135 10.0817C10.2985 10.1867 8.71995 10.4842 7.4582 11.3102C6.61229 11.8651 5.88386 12.581 5.31445 13.4172C4.00195 15.3422 4.00195 18.0232 4.00195 23.387C4.00195 28.749 4.00195 31.43 5.3127 33.3567C5.8797 34.1897 6.6077 34.9055 7.4582 35.4637C9.41995 36.75 12.1517 36.75 17.6135 36.75ZM21.502 16.2277C17.4752 16.2277 14.2097 19.432 14.2097 23.3852C14.2097 27.3402 17.4752 30.5462 21.502 30.5462C25.5287 30.5462 28.7942 27.3402 28.7942 23.387C28.7942 19.432 25.5287 16.2277 21.502 16.2277ZM21.502 19.0907C19.087 19.0907 17.127 21.014 17.127 23.387C17.127 25.7582 19.087 27.6815 21.502 27.6815C23.917 27.6815 25.877 25.7582 25.877 23.387C25.877 21.014 23.917 19.0907 21.502 19.0907ZM29.7655 17.6592C29.7655 16.8682 30.4182 16.2277 31.225 16.2277H33.1675C33.9725 16.2277 34.627 16.8682 34.627 17.6592C34.6233 18.0423 34.4676 18.4082 34.1943 18.6766C33.921 18.945 33.5523 19.094 33.1692 19.0907H31.225C31.0351 19.0926 30.8468 19.057 30.6707 18.9861C30.4946 18.9151 30.3342 18.8102 30.1987 18.6773C30.0632 18.5443 29.9552 18.386 29.8808 18.2113C29.8065 18.0366 29.7673 17.849 29.7655 17.6592Z" fill="white"/>
</svg>
