<svg width="31" height="31" viewBox="0 0 31 31" fill="none" xmlns="http://www.w3.org/2000/svg">
<path fill-rule="evenodd" clip-rule="evenodd" d="M8.8815 19.5351C9.64487 20.7864 10.7473 21.7956 12.061 22.4457C13.3746 23.0958 14.8456 23.3602 16.3035 23.2082C17.7613 23.0563 19.1462 22.4941 20.2975 21.587C21.4488 20.6799 22.3194 19.4651 22.8083 18.0833H25.5078C25.0125 19.998 23.9783 21.7303 22.5279 23.0749C21.0775 24.4194 19.2719 25.3197 17.3253 25.6689C15.3786 26.0181 13.3727 25.8015 11.5454 25.0449C9.71817 24.2883 8.1463 23.0234 7.01633 21.4003L3.875 24.5416V16.7916H11.625L8.8815 19.5351ZM22.1198 11.4635C21.356 10.2121 20.2532 9.20279 18.9391 8.55266C17.6251 7.90253 16.1537 7.63819 14.6955 7.79029C13.2374 7.9424 11.8522 8.50471 10.7006 9.41203C9.54903 10.3194 8.67822 11.5345 8.18917 12.9166H5.48958C5.98476 11.0012 7.01905 9.26806 8.46971 7.92286C9.92037 6.57766 11.7265 5.67688 13.6738 5.3274C15.621 4.97793 17.6277 5.19443 19.4556 5.95123C21.2835 6.70803 22.8559 7.97335 23.9862 9.59703L27.125 6.45828V14.2083H19.375L22.1198 11.4635Z" fill="white"/>
</svg>
