<svg width="56" height="55" viewBox="0 0 56 55" fill="none" xmlns="http://www.w3.org/2000/svg">
<path d="M46.4444 26.9543L22.3819 52.7356C22.1269 53.0077 21.7903 53.1895 21.4229 53.2536C21.0556 53.3176 20.6773 53.2605 20.3453 53.0907C20.0132 52.9209 19.7454 52.6477 19.5822 52.3124C19.4191 51.977 19.3694 51.5977 19.4407 51.2317L22.5903 35.4772L10.2089 30.828C9.94296 30.7285 9.70583 30.5647 9.51867 30.3512C9.33151 30.1378 9.20014 29.8813 9.1363 29.6046C9.07246 29.328 9.07814 29.0399 9.15284 28.766C9.22753 28.4921 9.36891 28.2409 9.56434 28.035L33.6268 2.25374C33.8818 1.98161 34.2184 1.7998 34.5858 1.73575C34.9532 1.6717 35.3315 1.72887 35.6635 1.89865C35.9955 2.06843 36.2634 2.34161 36.4265 2.67695C36.5897 3.01229 36.6394 3.3916 36.5681 3.75765L33.4098 19.5293L45.7913 24.1721C46.0552 24.2722 46.2905 24.4358 46.4762 24.6485C46.6619 24.8611 46.7924 25.1162 46.8561 25.3912C46.9198 25.6662 46.9148 25.9527 46.8415 26.2253C46.7682 26.498 46.6289 26.7483 46.4358 26.9543H46.4444Z" fill="white"/>
</svg>
