<svg width="37" height="46" viewBox="0 0 37 46" fill="none" xmlns="http://www.w3.org/2000/svg">
<path d="M18.5 45.5C13.2875 44.1875 8.984 41.1965 5.5895 36.527C2.195 31.8575 0.498501 26.6735 0.500001 20.975V7.25L18.5 0.5L36.5 7.25V20.975C36.5 26.675 34.8035 31.8598 31.4105 36.5293C28.0175 41.1987 23.714 44.189 18.5 45.5ZM18.5 40.775C22.1375 39.65 25.175 37.4277 27.6125 34.1082C30.05 30.7887 31.475 27.086 31.8875 23H18.5V5.28125L5 10.3438V21.9875C5 22.25 5.0375 22.5875 5.1125 23H18.5V40.775Z" fill="white"/>
</svg>
