<svg width="48" height="48" viewBox="0 0 48 48" fill="none" xmlns="http://www.w3.org/2000/svg">
<path d="M24 0C19.2533 0 14.6131 1.40758 10.6663 4.04473C6.71955 6.68188 3.6434 10.4302 1.8269 14.8156C0.0103987 19.201 -0.464881 24.0266 0.461164 28.6822C1.38721 33.3377 3.67299 37.6141 7.02945 40.9706C10.3859 44.327 14.6623 46.6128 19.3178 47.5388C23.9734 48.4649 28.799 47.9896 33.1844 46.1731C37.5698 44.3566 41.3181 41.2805 43.9553 37.3337C46.5924 33.3869 48 28.7468 48 24C48 17.6348 45.4714 11.5303 40.9706 7.02944C36.4697 2.52856 30.3652 0 24 0ZM36 23.355C35.5992 23.7471 35.0607 23.9667 34.5 23.9667C33.9393 23.9667 33.4008 23.7471 33 23.355L26.1 16.5V37.71C26.1 38.267 25.8788 38.8011 25.4849 39.1949C25.0911 39.5887 24.557 39.81 24 39.81C23.4431 39.81 22.9089 39.5887 22.5151 39.1949C22.1213 38.8011 21.9 38.267 21.9 37.71V16.71L15.255 23.355C14.8572 23.7528 14.3176 23.9763 13.755 23.9763C13.1924 23.9763 12.6528 23.7528 12.255 23.355C11.8572 22.9572 11.6337 22.4176 11.6337 21.855C11.6337 21.2924 11.8572 20.7528 12.255 20.355L24.12 8.55L36 20.385C36.195 20.58 36.3497 20.8115 36.4553 21.0663C36.5608 21.3211 36.6152 21.5942 36.6152 21.87C36.6152 22.1458 36.5608 22.4189 36.4553 22.6737C36.3497 22.9285 36.195 23.16 36 23.355Z" fill="white"/>
</svg>
